<svg xmlns="http://www.w3.org/2000/svg" viewBox="0 0 469 470.29"><title>welcome</title><g id="BACKGROUND"><path d="M409.62,138a19.71,19.71,0,0,1-2.44,7.1c-2,3.11,1.22,10,1.22,10a13.22,13.22,0,0,1,2.28-7.1,14.2,14.2,0,0,0,1.91-8.29l-3.72-6Z" transform="translate(-15.5 -21.38)" style="fill:#fff"/><path d="M409.62,138a6.89,6.89,0,0,0-2.06-6.09,18.63,18.63,0,0,1-4-6.71,18.18,18.18,0,0,0-.72,4.94C402.82,132.8,406.27,136.4,409.62,138Z" transform="translate(-15.5 -21.38)" style="fill:#cf633f"/><path d="M457.05,29.65a12.64,12.64,0,0,1-1.58,4.58c-1.27,2,.79,6.44.79,6.44a8.5,8.5,0,0,1,1.47-4.58A9.16,9.16,0,0,0,459,30.73l-2.4-3.88Z" transform="translate(-15.5 -21.38)" style="fill:#fff"/><path d="M457.05,29.65a4.45,4.45,0,0,0-1.33-3.94,12.09,12.09,0,0,1-2.6-4.33,11.54,11.54,0,0,0-.47,3.19C452.65,26.3,454.88,28.62,457.05,29.65Z" transform="translate(-15.5 -21.38)" style="fill:#cf633f"/><path d="M25.08,131.51a6.09,6.09,0,0,1,1.84-2.87,4.16,4.16,0,0,1,3.33-1.36A17.61,17.61,0,0,0,32.39,133a5.17,5.17,0,0,0-2,3.12A13.43,13.43,0,0,0,25.08,131.51Z" transform="translate(-15.5 -21.38)" style="fill:#cf633f"/><path d="M466.43,102.16l-2.3,3a13.88,13.88,0,0,1,3.59,4.79s2.72-2,3-3.36S466.43,102.16,466.43,102.16Z" transform="translate(-15.5 -21.38)" style="fill:#cf633f"/><path d="M344.56,125.18l-2.31,2.95a13.84,13.84,0,0,1,3.6,4.79s2.71-2,3-3.36S344.56,125.18,344.56,125.18Z" transform="translate(-15.5 -21.38)" style="fill:#cf633f"/><path d="M152.52,238.06l-2.3,2.95a13.76,13.76,0,0,1,3.59,4.79s2.72-2,3-3.36S152.52,238.06,152.52,238.06Z" transform="translate(-15.5 -21.38)" style="fill:#cf633f"/><path id="ribben_seventeen" d="M397.15,210.36l3.17-2.31a14.62,14.62,0,0,1-2.24-5.87s-3.32,1.26-4,2.53S397.15,210.36,397.15,210.36Z" transform="translate(-15.5 -21.38)" style="fill:#cf633f"/><path d="M296.24,242l-.78-3.66a13.77,13.77,0,0,1-6-.31s-.19,3.39.66,4.45S296.24,242,296.24,242Z" transform="translate(-15.5 -21.38)" style="fill:#cf633f"/><path d="M181.82,194.26l-2.3,3a13.75,13.75,0,0,1,3.59,4.79s2.72-2,3-3.36S181.82,194.26,181.82,194.26Z" transform="translate(-15.5 -21.38)" style="fill:#cf633f"/><path d="M91,151.61a11,11,0,0,1-1.94,6.71A7.3,7.3,0,0,1,91.57,161s2.12-1.44,2.21-3.29A6.46,6.46,0,0,0,91,151.61Z" transform="translate(-15.5 -21.38)" style="fill:#cf633f"/><path id="ribben_sixteen" d="M88.62,23.79a11,11,0,0,1-1.94,6.71,7.3,7.3,0,0,1,2.52,2.66s2.12-1.44,2.21-3.29A6.46,6.46,0,0,0,88.62,23.79Z" transform="translate(-15.5 -21.38)" style="fill:#cf633f"/><path d="M78.25,142.21a11.1,11.1,0,0,1-.73-7,7.27,7.27,0,0,1-3.34-1.51s-1.42,2.13-.8,3.88A6.44,6.44,0,0,0,78.25,142.21Z" transform="translate(-15.5 -21.38)" style="fill:#cf633f"/><path id="ribben_fifteen" d="M15.5,45.44a9.59,9.59,0,0,1,2.86,4.33,16.85,16.85,0,0,0,1.33-4.47c.09-1.7-2.09-4.79-2.09-4.79Z" transform="translate(-15.5 -21.38)" style="fill:#cf633f"/><polygon points="74.39 244.83 73.53 246.79 76.97 249.37 78.32 244.83 74.39 244.83" style="fill:#cf633f"/><polygon points="386.77 21.27 390.56 18.52 383.87 13.95 386.77 21.27" style="fill:#cf633f"/><polygon points="126.51 24.33 122.7 27.05 129.35 31.68 126.51 24.33" style="fill:#cf633f"/><path id="ribben_eleven" d="M481.46,63.77a14.1,14.1,0,0,1-.8,4.24s1.35.8,2.15,1.41,1.9-.92,1.66-3.25Z" transform="translate(-15.5 -21.38)" style="fill:#cf633f"/><path id="ribben_ten" d="M187.82,34.89a13.69,13.69,0,0,1-2.89-3.2s-1.45.59-2.43.85-.42,2.08,1.59,3.3Z" transform="translate(-15.5 -21.38)" style="fill:#cf633f"/><path d="M330.37,61.84l-2.48,2.39a4.13,4.13,0,0,1,2.48,3.6s2.12-1.25,2.17-3S330.37,61.84,330.37,61.84Z" transform="translate(-15.5 -21.38)" style="fill:#cf633f"/><path id="ribben_nene" d="M271.07,52.23l-2.48,2.39a4.12,4.12,0,0,1,2.48,3.59s2.12-1.24,2.17-3S271.07,52.23,271.07,52.23Z" transform="translate(-15.5 -21.38)" style="fill:#cf633f"/><path id="ribben_eight" d="M355.41,30.77l-2.49,2.39a4.13,4.13,0,0,1,2.49,3.6s2.12-1.25,2.16-3S355.41,30.77,355.41,30.77Z" transform="translate(-15.5 -21.38)" style="fill:#cf633f"/><path id="ribben_seven" d="M250.87,138l-2.48,2.4a4.1,4.1,0,0,1,2.48,3.59s2.12-1.24,2.17-3S250.87,138,250.87,138Z" transform="translate(-15.5 -21.38)" style="fill:#cf633f"/><polygon id="ribben_six" points="116.15 130.24 116.55 127.61 110.45 125.65 112.93 129.22 116.15 130.24" style="fill:#cf633f"/><polygon id="ribben_five" points="92.46 70.36 89.79 73.68 93.83 78.19 94.86 73.77 92.46 70.36" style="fill:#cf633f"/><polygon id="ribben_four" points="457.17 138.21 455.82 141.37 459.02 146.68 461.23 143.36 457.17 138.21" style="fill:#cf633f"/><polygon id="ribben_three" points="275.1 47.36 275.21 50.65 280.25 53.51 279.24 49.59 275.1 47.36" style="fill:#cf633f"/><polygon points="371.82 79.95 370.35 82.9 373.42 87.81 374.4 83.88 371.82 79.95" style="fill:#cf633f"/><path d="M404.6,74.71,406,73a8.14,8.14,0,0,1-2.11-2.84s-1.61,1.18-1.78,2S404.6,74.71,404.6,74.71Z" transform="translate(-15.5 -21.38)" style="fill:#cf633f"/><g id="ribben_two"><path d="M317.05,110.39l1.72,2.79a8.85,8.85,0,0,0,0-3.54c-.38-2-1.44-3.27-1.18-5.51C317.59,104.13,316.73,108.37,317.05,110.39Z" transform="translate(-15.5 -21.38)" style="fill:#fff"/><path d="M320,97.87s1.17,3.6-1,6.28a10.25,10.25,0,0,0-2,6.24L314.88,106a5.89,5.89,0,0,1,1.4-3.33C317.56,101.3,319.62,99.85,320,97.87Z" transform="translate(-15.5 -21.38)" style="fill:#cf633f"/></g><path d="M150.47,100.64a13.76,13.76,0,0,1-.8,4.24,25.26,25.26,0,0,1,2.15,1.41c.8.61,1.91-.92,1.66-3.26Z" transform="translate(-15.5 -21.38)" style="fill:#cf633f"/><g id="ribben_one"><path d="M226.91,75.49s-1.73,3.83-4.74,5.27A9.18,9.18,0,0,0,218,84.6a60.48,60.48,0,0,1,1-6.06c.51-1.85,4.48-1.86,6.44-9Z" transform="translate(-15.5 -21.38)" style="fill:#fff"/><path d="M218.64,51.05s-2.49,5.51-1.5,9.65,9.77,14.79,9.77,14.79l2-7.24s-6.08-2.16-8.12-7.22A31.63,31.63,0,0,1,218.64,51.05Z" transform="translate(-15.5 -21.38)" style="fill:#cf633f"/></g><path d="M84.9,199.85l2.8-2.48A13.83,13.83,0,0,1,85,192s-3,1.5-3.56,2.76S84.9,199.85,84.9,199.85Z" transform="translate(-15.5 -21.38)" style="fill:#cf633f"/><path d="M67.46,242.32s1.73,3.83,4.74,5.27a9.18,9.18,0,0,1,4.15,3.84,57.59,57.59,0,0,0-1-6.06c-.51-1.85-4.48-1.87-6.44-9Z" transform="translate(-15.5 -21.38)" style="fill:#fff"/><path d="M75.73,217.88s2.48,5.51,1.49,9.65-9.76,14.79-9.76,14.79l-2-7.24s6.08-2.16,8.13-7.22A31.68,31.68,0,0,0,75.73,217.88Z" transform="translate(-15.5 -21.38)" style="fill:#cf633f"/><path d="M62.43,58.5a19.61,19.61,0,0,0,2.45,7.1c2,3.11-1.23,10-1.23,10a13.26,13.26,0,0,0-2.27-7.1,14.16,14.16,0,0,1-1.92-8.29l3.72-6Z" transform="translate(-15.5 -21.38)" style="fill:#fff"/><path d="M62.43,58.5a6.91,6.91,0,0,1,2.06-6.08,18.82,18.82,0,0,0,4-6.71,18.06,18.06,0,0,1,.72,4.93C69.24,53.33,65.79,56.92,62.43,58.5Z" transform="translate(-15.5 -21.38)" style="fill:#cf633f"/><g id="spring_ten"><path d="M149.31,160.92s.56,9.4-3.36,12.57l3.59.41s2.75-.63,3.46-12.47Z" transform="translate(-15.5 -21.38)" style="fill:#ca4827"/><path d="M155.61,183.45s.15,2.18-3.19,3.2-4.61,1.5-6.17,1.52c0,0-4.58-3-1.86-3.37s9-2,10.26-3.52Z" transform="translate(-15.5 -21.38)" style="fill:#ca4827"/><path d="M144.86,173.35c1.87-.25,7.88-.56,11.47,4.92l-.72,5.18s-3.45-7.26-9.75-6.13a.72.72,0,0,1-.82-.54l-.63-2.78A.54.54,0,0,1,144.86,173.35Z" transform="translate(-15.5 -21.38)" style="fill:#e1724c"/><path d="M154.86,196.65s.42,2.2-3.08,4.09a23.48,23.48,0,0,1-6.14,2.39l-1.3-3.83s8.12-2,9.26-4.26Z" transform="translate(-15.5 -21.38)" style="fill:#ca4827"/><path d="M144,184.87s-1.29.82,5.13,3.52,6,4.49,6,4.49l-.28,3.77s-.51-1.07-4.87-2.71-8.05-2.42-7.72-4.6S143.07,184.83,144,184.87Z" transform="translate(-15.5 -21.38)" style="fill:#e1724c"/></g><g id="spring_nine"><path d="M326.33,182.73s-6.16,4.29-3.08,5.26l.93.35s5.56-4.9,5.93-5.1Z" transform="translate(-15.5 -21.38)" style="fill:#b31616"/><path d="M329.7,196.17a2.91,2.91,0,0,1-1.79,1.09c-1.35.34-3.78.68-3.78.68s-4.08-1.69-1.83-2.14,6.35-1.08,6.46-1.71l.77-.06Z" transform="translate(-15.5 -21.38)" style="fill:#b31616"/><path d="M322.41,186.85a12.57,12.57,0,0,0,4.31,2.74c2.95,1.22,3.38,2.73,3.38,2.73l-.4,3.85a4.14,4.14,0,0,0-2.77-3.37c-2.71-1.17-5.12-2.28-5.26-2.57A24.8,24.8,0,0,1,322.41,186.85Z" transform="translate(-15.5 -21.38)" style="fill:#d23b3b"/><path d="M328.65,204.15a2,2,0,0,1-1.2,1.83,26.72,26.72,0,0,1-5.19,1.46s-2.37-2.32-1.15-2.55,6.14-1,6.76-1.88Z" transform="translate(-15.5 -21.38)" style="fill:#b31616"/><path d="M321.63,196.16s8.19,4,7.25,6l-.23,2a16.21,16.21,0,0,0-6.85-4.24s-1.1-.26-.92-1.18S321.63,196.16,321.63,196.16Z" transform="translate(-15.5 -21.38)" style="fill:#d23b3b"/><path d="M321.18,204.88s-1.1.17,1.86,1.73c2.66,1.4,4.49,2.41,5.31,2.88a.73.73,0,0,1,.36.83l-.69,2.86a31.49,31.49,0,0,0-8.19-4.8S319.81,204.83,321.18,204.88Z" transform="translate(-15.5 -21.38)" style="fill:#d23b3b"/></g><g id="spring_eight"><path d="M443.06,131.92s-.85,11.29-6,14.44l4.21,1.06s3.38-.3,6.15-14.29Z" transform="translate(-15.5 -21.38)" style="fill:#b31616"/><path d="M446.92,159.8s-.18,2.62-4.33,3.29-5.74,1-7.59.82c0,0-5-4.29-1.68-4.33s11-.93,12.8-2.53Z" transform="translate(-15.5 -21.38)" style="fill:#b31616"/><path d="M435.74,146c2.27,0,9.49.6,12.87,7.72l-1.69,6.06s-2.94-9.22-10.63-8.9a.84.84,0,0,1-.89-.77l-.29-3.42A.63.63,0,0,1,435.74,146Z" transform="translate(-15.5 -21.38)" style="fill:#d23b3b"/><path d="M443.88,175.42s.14,2.68-4.33,4.37a28.15,28.15,0,0,1-7.72,1.85l-.92-4.78s10-1,11.73-3.58Z" transform="translate(-15.5 -21.38)" style="fill:#b31616"/><path d="M432.89,159.62s-1.67.76,5.55,5,6.38,6.33,6.38,6.33l-.94,4.45s-.43-1.37-5.37-4-9.21-4.19-8.46-6.73S431.74,159.4,432.89,159.62Z" transform="translate(-15.5 -21.38)" style="fill:#d23b3b"/></g><g id="spring_seven"><path d="M38.19,325.19s-1.14,15-8,19.13l5.59,1.41s4.48-.4,8.15-18.94Z" transform="translate(-15.5 -21.38)" style="fill:#b31616"/><path d="M43.3,362.14s-.24,3.47-5.74,4.36-7.61,1.38-10.07,1.09c0,0-6.6-5.68-2.22-5.74s14.58-1.24,17-3.35Z" transform="translate(-15.5 -21.38)" style="fill:#b31616"/><path d="M28.48,343.87c3,0,12.58.8,17.06,10.24l-2.24,8s-3.9-12.22-14.09-11.79a1.13,1.13,0,0,1-1.18-1l-.39-4.54A.84.84,0,0,1,28.48,343.87Z" transform="translate(-15.5 -21.38)" style="fill:#d23b3b"/><path d="M39.26,382.84s.2,3.56-5.74,5.79a37.46,37.46,0,0,1-10.22,2.46l-1.22-6.33s13.25-1.38,15.55-4.75Z" transform="translate(-15.5 -21.38)" style="fill:#b31616"/><path d="M24.71,361.9s-2.22,1,7.35,6.66,8.46,8.38,8.46,8.38l-1.26,5.9s-.56-1.81-7.11-5.33S20,372,20.94,368.58,23.18,361.61,24.71,361.9Z" transform="translate(-15.5 -21.38)" style="fill:#d23b3b"/></g><g id="spring_six"><path d="M48.89,133.25s.78,10.32,5.52,13.2l-3.85,1s-3.09-.28-5.62-13.07Z" transform="translate(-15.5 -21.38)" style="fill:#b31616"/><path d="M45.36,158.73s.17,2.39,4,3,5.24.94,6.94.74c0,0,4.55-3.91,1.53-3.95s-10-.85-11.7-2.31Z" transform="translate(-15.5 -21.38)" style="fill:#b31616"/><path d="M55.58,146.13c-2.07,0-8.67.56-11.76,7.06l1.54,5.54s2.69-8.42,9.72-8.13a.77.77,0,0,0,.81-.7l.27-3.13A.59.59,0,0,0,55.58,146.13Z" transform="translate(-15.5 -21.38)" style="fill:#d23b3b"/><path d="M48.14,173s-.13,2.45,4,4a25.41,25.41,0,0,0,7,1.69l.84-4.36s-9.13-.95-10.72-3.27Z" transform="translate(-15.5 -21.38)" style="fill:#b31616"/><path d="M58.18,158.56s1.53.7-5.07,4.59-5.83,5.79-5.83,5.79l.86,4.06s.39-1.25,4.91-3.68,8.41-3.83,7.73-6.15S59.23,158.36,58.18,158.56Z" transform="translate(-15.5 -21.38)" style="fill:#d23b3b"/></g><g id="spring_five"><path d="M133.66,76.54s-1,6.67,1.57,9.2l-2.59.05s-1.93-.63-1.65-9.13Z" transform="translate(-15.5 -21.38)" style="fill:#b31616"/><path d="M127.66,92.21s-.25,1.55,2.07,2.5,3.2,1.38,4.3,1.5c0,0,3.47-1.82,1.56-2.29s-6.26-2-7.1-3.2Z" transform="translate(-15.5 -21.38)" style="fill:#b31616"/><path d="M136,85.72a8.33,8.33,0,0,0-8.51,2.75l.16,3.74s3-4.95,7.38-3.73a.52.52,0,0,0,.62-.32l.63-2A.38.38,0,0,0,136,85.72Z" transform="translate(-15.5 -21.38)" style="fill:#d23b3b"/><path d="M127.32,101.7s-.45,1.53,1.93,3.12a16.82,16.82,0,0,0,4.23,2.11l1.18-2.64s-5.67-2-6.33-3.67Z" transform="translate(-15.5 -21.38)" style="fill:#b31616"/><path d="M135.83,94s.87.67-3.9,2.17S127.37,99,127.37,99l-.05,2.72s.43-.74,3.66-1.62,5.91-1.19,5.82-2.77S136.53,94,135.83,94Z" transform="translate(-15.5 -21.38)" style="fill:#d23b3b"/></g><g id="spring_four"><path d="M459.58,309.58s1.13,15,8,19.13L462,330.13s-4.48-.41-8.16-18.95Z" transform="translate(-15.5 -21.38)" style="fill:#ca4827"/><path d="M454.47,346.53s.24,3.47,5.73,4.36,7.61,1.38,10.07,1.09c0,0,6.6-5.68,2.22-5.74s-14.57-1.24-17-3.35Z" transform="translate(-15.5 -21.38)" style="fill:#ca4827"/><path d="M469.28,328.26c-3,0-12.57.8-17,10.24l2.24,8s3.9-12.22,14.09-11.79a1.13,1.13,0,0,0,1.18-1l.39-4.54A.85.85,0,0,0,469.28,328.26Z" transform="translate(-15.5 -21.38)" style="fill:#e1724c"/><path d="M458.5,367.23s-.19,3.56,5.74,5.79a37.46,37.46,0,0,0,10.22,2.46l1.23-6.33s-13.26-1.38-15.55-4.75Z" transform="translate(-15.5 -21.38)" style="fill:#ca4827"/><path d="M473.06,346.29s2.21,1-7.35,6.66-8.46,8.38-8.46,8.38l1.25,5.9s.57-1.81,7.11-5.33,12.21-5.56,11.22-8.93S474.59,346,473.06,346.29Z" transform="translate(-15.5 -21.38)" style="fill:#e1724c"/></g><g id="spring_three"><path d="M380.47,66s-8.84,5.81-4.31,7.08l1.38.47s7.94-6.62,8.47-6.89Z" transform="translate(-15.5 -21.38)" style="fill:#ca4827"/><path d="M385.91,84a4.14,4.14,0,0,1-2.58,1.47c-1.95.47-5.5.94-5.5.94s-6-2.23-2.76-2.86,9.25-1.49,9.38-2.34l1.13-.08Z" transform="translate(-15.5 -21.38)" style="fill:#ca4827"/><path d="M374.89,71.54a19,19,0,0,0,6.4,3.64c4.37,1.62,5.06,3.65,5.06,3.65L385.91,84s-.18-3-4.18-4.51-7.57-3-7.79-3.41A31.21,31.21,0,0,1,374.89,71.54Z" transform="translate(-15.5 -21.38)" style="fill:#e1724c"/><path d="M384.68,94.72A2.54,2.54,0,0,1,383,97.19a41,41,0,0,1-7.53,2s-3.55-3.1-1.79-3.42,8.94-1.35,9.82-2.57Z" transform="translate(-15.5 -21.38)" style="fill:#ca4827"/><path d="M374.11,84s12.12,5.31,10.83,8l-.26,2.65a24.68,24.68,0,0,0-10.18-5.65s-1.62-.34-1.39-1.57A32.69,32.69,0,0,1,374.11,84Z" transform="translate(-15.5 -21.38)" style="fill:#e1724c"/><path d="M373.78,95.75s-1.6.24,2.79,2.31c3.94,1.86,6.65,3.21,7.87,3.82A1,1,0,0,1,385,103l-.91,3.84a48.44,48.44,0,0,0-12.16-6.39S371.77,95.69,373.78,95.75Z" transform="translate(-15.5 -21.38)" style="fill:#e1724c"/></g><g id="spring_two"><path d="M35.05,196.65s-.73,12-6.19,15.41l4.49,1.06s3.58-.38,6.3-15.26Z" transform="translate(-15.5 -21.38)" style="fill:#ca4827"/><path d="M39.57,226.16s-.15,2.78-4.54,3.56-6.07,1.19-8,1c0,0-5.35-4.47-1.84-4.57s11.64-1.16,13.54-2.88Z" transform="translate(-15.5 -21.38)" style="fill:#ca4827"/><path d="M27.5,211.71c2.41,0,10.08.5,13.77,8l-1.7,6.45s-3.26-9.73-11.41-9.27a.9.9,0,0,1-1-.8l-.36-3.63A.68.68,0,0,1,27.5,211.71Z" transform="translate(-15.5 -21.38)" style="fill:#e1724c"/><path d="M36.59,242.78s.19,2.84-4.53,4.7a29.84,29.84,0,0,1-8.15,2.08l-1.06-5.05s10.6-1.26,12.39-4Z" transform="translate(-15.5 -21.38)" style="fill:#ca4827"/><path d="M24.69,226.19s-1.76.84,6,5.24S37.52,238,37.52,238l-.93,4.74s-.48-1.45-5.75-4.19-9.84-4.3-9.09-7S23.46,226,24.69,226.19Z" transform="translate(-15.5 -21.38)" style="fill:#e1724c"/></g><g id="spring_one"><path d="M146,339.83s-9.3,6.11-4.53,7.45l1.44.49s8.35-7,8.91-7.24Z" transform="translate(-15.5 -21.38)" style="fill:#ca4827"/><path d="M151.74,358.78a4.42,4.42,0,0,1-2.72,1.55c-2.05.49-5.78,1-5.78,1s-6.34-2.34-2.9-3,9.72-1.56,9.87-2.46l1.18-.08Z" transform="translate(-15.5 -21.38)" style="fill:#ca4827"/><path d="M140.15,345.68a20.13,20.13,0,0,0,6.73,3.83c4.6,1.7,5.32,3.84,5.32,3.84l-.46,5.43s-.19-3.1-4.4-4.74-8-3.17-8.19-3.59A32.57,32.57,0,0,1,140.15,345.68Z" transform="translate(-15.5 -21.38)" style="fill:#e1724c"/><path d="M150.44,370.05a2.66,2.66,0,0,1-1.78,2.6,43.36,43.36,0,0,1-7.92,2.1s-3.73-3.27-1.87-3.6,9.4-1.43,10.32-2.7Z" transform="translate(-15.5 -21.38)" style="fill:#ca4827"/><path d="M139.33,358.82s12.75,5.58,11.39,8.45l-.28,2.78a26,26,0,0,0-10.7-5.94s-1.7-.35-1.46-1.65A34.41,34.41,0,0,1,139.33,358.82Z" transform="translate(-15.5 -21.38)" style="fill:#e1724c"/><path d="M139,371.13s-1.68.26,2.93,2.44c4.15,2,7,3.37,8.28,4a1.06,1.06,0,0,1,.59,1.18l-.95,4A51.08,51.08,0,0,0,137,376.08S136.86,371.07,139,371.13Z" transform="translate(-15.5 -21.38)" style="fill:#e1724c"/></g><g id="ballon_six"><path d="M445.27,491.65a.62.62,0,0,0,.19-.07.65.65,0,0,0,.23-.89c-7.19-12.24-10.1-23.95-9.73-39.14.4-16.3-7-41.36-7-41.61a.63.63,0,0,0-.8-.44.65.65,0,0,0-.44.8c.08.25,7.39,25.13,7,41.22-.38,15.45,2.58,27.36,9.91,39.83A.62.62,0,0,0,445.27,491.65Z" transform="translate(-15.5 -21.38)" style="fill:#d23b3b"/><path d="M397,357.14a34.67,34.67,0,0,0-2.3,22c3.82,17.57,19.71,29,35.49,25.6a27.57,27.57,0,0,0,17.31-12.27c-3.74,8-10.62,14.12-19.37,16-15.79,3.43-31.68-8-35.5-25.6A34.19,34.19,0,0,1,397,357.14Z" transform="translate(-15.5 -21.38)" style="fill:#b31616"/><path d="M412.22,348a27.26,27.26,0,0,0-15.6,9.88c.12-.26.21-.53.33-.78a27.57,27.57,0,0,1,17.31-12.27c15.79-3.42,31.68,8,35.49,25.6a34.66,34.66,0,0,1-2.3,22,28.81,28.81,0,0,1-1.71,2.39,34.72,34.72,0,0,0,2-21.22C443.9,356.07,428,344.61,412.22,348Z" transform="translate(-15.5 -21.38)" style="fill:#d23b3b"/><path d="M394.65,379.14a34.8,34.8,0,0,1,2-21.22,27.26,27.26,0,0,1,15.6-9.88c15.79-3.43,31.68,8,35.5,25.6a34.72,34.72,0,0,1-2,21.22,27.2,27.2,0,0,1-15.6,9.88C414.36,408.17,398.47,396.71,394.65,379.14Z" transform="translate(-15.5 -21.38)" style="fill:#d23b3b"/><path d="M425.88,410.26a13,13,0,0,0,1.22-2.33l.82-.18.81-.18a13.18,13.18,0,0,0,2.09,1.62c.63.27.86,1.32-2.16,2S425.41,410.77,425.88,410.26Z" transform="translate(-15.5 -21.38)" style="fill:#b31616"/><path d="M410.45,352.39l.36-.07c.22,0,.57-.09,1-.14a26.1,26.1,0,0,1,3.7-.13c.77,0,1.6.09,2.47.17s1.78.26,2.71.46a24.76,24.76,0,0,1,2.82.79c.47.17,1,.3,1.42.51l1.38.61A26.74,26.74,0,0,1,429,356c.85.5,1.61,1.13,2.38,1.66s1.39,1.22,2,1.78a19.25,19.25,0,0,1,1.67,1.76,15.49,15.49,0,0,1,1.33,1.57c.36.5.67.94.93,1.29l.8,1.12.09.13a1.57,1.57,0,1,0,2.54-1.83l-.05-.06-.94-1.18-1.09-1.35a16.12,16.12,0,0,0-1.54-1.63,20.11,20.11,0,0,0-1.93-1.82c-.75-.58-1.49-1.25-2.34-1.83s-1.73-1.17-2.69-1.67a26.6,26.6,0,0,0-3-1.39l-1.53-.59c-.51-.19-1-.3-1.55-.46a27.38,27.38,0,0,0-3.07-.68c-1-.16-2-.26-2.91-.33s-1.81-.08-2.62,0a26,26,0,0,0-3.89.36c-.47.08-.84.15-1.09.21l-.38.09a.64.64,0,0,0,.26,1.26Z" transform="translate(-15.5 -21.38)" style="fill:#fbfaf9"/></g><g id="ballon_five"><path d="M362.33,420.35l.12,0a.39.39,0,0,0,.13-.53c-4.26-7.24-6-14.17-5.76-23.16.24-9.65-4.12-24.49-4.16-24.63a.37.37,0,0,0-.48-.26.38.38,0,0,0-.26.47c.05.15,4.38,14.87,4.14,24.4-.23,9.14,1.53,16.19,5.86,23.57A.39.39,0,0,0,362.33,420.35Z" transform="translate(-15.5 -21.38)" style="fill:#d23b3b"/><path d="M333.74,340.74a20.5,20.5,0,0,0-1.37,13c2.26,10.4,11.67,17.18,21,15.15a16.31,16.31,0,0,0,10.25-7.26,16.66,16.66,0,0,1-11.47,9.48c-9.35,2-18.75-4.75-21-15.15A20.2,20.2,0,0,1,333.74,340.74Z" transform="translate(-15.5 -21.38)" style="fill:#ca4827"/><path d="M342.77,335.35a16.17,16.17,0,0,0-9.23,5.85c.07-.15.12-.31.2-.46A16.26,16.26,0,0,1,344,333.48c9.34-2,18.75,4.75,21,15.15a20.57,20.57,0,0,1-1.36,13q-.48.74-1,1.41a20.52,20.52,0,0,0,1.17-12.56C361.52,340.11,352.12,333.32,342.77,335.35Z" transform="translate(-15.5 -21.38)" style="fill:#e1724c"/><path d="M332.37,353.76a20.6,20.6,0,0,1,1.17-12.56,16.17,16.17,0,0,1,9.23-5.85c9.35-2,18.75,4.76,21,15.15a20.52,20.52,0,0,1-1.17,12.56,16.11,16.11,0,0,1-9.23,5.85C344,370.94,334.63,364.16,332.37,353.76Z" transform="translate(-15.5 -21.38)" style="fill:#e1724c"/><path d="M350.85,372.18a7.64,7.64,0,0,0,.73-1.38l.48-.11.49-.1a7.36,7.36,0,0,0,1.23,1c.38.16.51.79-1.28,1.18S350.58,372.48,350.85,372.18Z" transform="translate(-15.5 -21.38)" style="fill:#b31616"/><path d="M341.73,337.93l.21,0c.13,0,.33-.05.6-.08a14.87,14.87,0,0,1,2.19-.09c.45,0,.94.06,1.46.11s1.05.15,1.6.27a14.9,14.9,0,0,1,1.67.47c.28.1.57.18.84.3l.82.36a16.62,16.62,0,0,1,1.56.84c.51.3.95.67,1.41,1s.82.72,1.21,1.05a10.6,10.6,0,0,1,1,1.05,9.83,9.83,0,0,1,.78.92l.55.77.48.66,0,.08a.93.93,0,1,0,1.5-1.09l0,0-.56-.7-.65-.8a9.86,9.86,0,0,0-.91-1,11.9,11.9,0,0,0-1.14-1.07c-.44-.35-.88-.74-1.39-1.09s-1-.69-1.59-1a15.57,15.57,0,0,0-1.75-.83l-.91-.34c-.3-.12-.61-.18-.92-.28A15.09,15.09,0,0,0,348,337c-.59-.1-1.18-.15-1.72-.19s-1.07-.05-1.55,0a16.68,16.68,0,0,0-2.31.21l-.64.13-.23.05a.38.38,0,0,0,.16.75Z" transform="translate(-15.5 -21.38)" style="fill:#fbfaf9"/></g><g id="ballon_four"><path d="M415.32,156.56l-.14-.06a.47.47,0,0,1-.14-.65c5.5-8.73,7.88-17.16,7.95-28.21.07-11.84,6-29.88,6.05-30.06a.47.47,0,1,1,.89.3c-.06.18-5.93,18.07-6,29.77-.07,11.23-2.49,19.81-8.09,28.7A.48.48,0,0,1,415.32,156.56Z" transform="translate(-15.5 -21.38)" style="fill:#d23b3b"/><path d="M453.45,60a25.2,25.2,0,0,1,1.17,16c-3.17,12.67-15,20.63-26.35,17.79a20,20,0,0,1-12.3-9.3,20.42,20.42,0,0,0,13.71,12.07c11.39,2.85,23.19-5.12,26.36-17.79A24.85,24.85,0,0,0,453.45,60Z" transform="translate(-15.5 -21.38)" style="fill:#b31616"/><path d="M442.56,53a19.67,19.67,0,0,1,11.1,7.53c-.07-.19-.13-.39-.21-.58a20.07,20.07,0,0,0-12.3-9.3C429.76,47.82,418,55.78,414.8,68.45a25.2,25.2,0,0,0,1.17,16c.37.61.77,1.2,1.19,1.77a25.15,25.15,0,0,1-1-15.45C419.37,58.13,431.17,50.16,442.56,53Z" transform="translate(-15.5 -21.38)" style="fill:#d23b3b"/><path d="M454.62,76a25.15,25.15,0,0,0-1-15.45A19.67,19.67,0,0,0,442.56,53c-11.39-2.85-23.19,5.12-26.35,17.79a25.15,25.15,0,0,0,1,15.45,19.82,19.82,0,0,0,11.11,7.53C439.65,96.62,451.45,88.66,454.62,76Z" transform="translate(-15.5 -21.38)" style="fill:#d23b3b"/><path d="M431.24,97.89a9.41,9.41,0,0,1-.84-1.73l-.59-.14-.58-.15A9.11,9.11,0,0,1,427.68,97c-.47.19-.66,1,1.52,1.49S431.57,98.27,431.24,97.89Z" transform="translate(-15.5 -21.38)" style="fill:#b31616"/><path d="M443.75,56.21l-.26-.06c-.16,0-.41-.08-.73-.12a17.86,17.86,0,0,0-2.69-.19c-.55,0-1.16,0-1.79.08s-1.3.14-2,.27a16,16,0,0,0-2.07.51c-.34.11-.7.2-1,.33l-1,.42a19.66,19.66,0,0,0-1.95,1c-.63.35-1.19.79-1.76,1.16s-1,.85-1.52,1.25a12.36,12.36,0,0,0-1.26,1.24,12.05,12.05,0,0,0-1,1.11l-.7.91-.61.8-.07.09a1.14,1.14,0,1,1-1.8-1.39s0,0,0,0l.71-.84.82-1a12.44,12.44,0,0,1,1.15-1.15,14.35,14.35,0,0,1,1.45-1.28c.55-.41,1.1-.88,1.74-1.28s1.28-.81,2-1.15a20.16,20.16,0,0,1,2.18-.94l1.12-.39c.38-.13.77-.2,1.14-.3a20.68,20.68,0,0,1,2.25-.43c.73-.09,1.44-.14,2.12-.17s1.31,0,1.9,0a19,19,0,0,1,2.82.35,6.93,6.93,0,0,1,.79.18l.27.07a.47.47,0,0,1-.22.91Z" transform="translate(-15.5 -21.38)" style="fill:#fbfaf9"/></g><g id="ballon_three"><path d="M90.52,407.55a.42.42,0,0,0-.16,0,.53.53,0,0,0-.47.57c1.18,11.42-.61,21-6,32-5.76,11.84-8.76,32.73-8.79,32.94a.51.51,0,0,0,.44.59.52.52,0,0,0,.59-.44c0-.21,3-20.94,8.7-32.64,5.47-11.22,7.29-21,6.09-32.59A.52.52,0,0,0,90.52,407.55Z" transform="translate(-15.5 -21.38)" style="fill:#d23b3b"/><path d="M84.83,358.48a28.06,28.06,0,0,0-9.08,15.4c-3.09,14.19,4.74,27.95,17.5,30.73a22.26,22.26,0,0,0,16.84-3.21,22.7,22.7,0,0,1-19.62,5.27C77.72,403.89,69.88,390.13,73,375.94A27.59,27.59,0,0,1,84.83,358.48Z" transform="translate(-15.5 -21.38)" style="fill:#b31616"/><path d="M99.11,356.92a22,22,0,0,0-14.78,2l.5-.47a22.3,22.3,0,0,1,16.84-3.2c12.75,2.78,20.58,16.54,17.49,30.73a28,28,0,0,1-9.07,15.39c-.67.43-1.36.82-2.06,1.18a28.07,28.07,0,0,0,8.57-14.93C119.69,373.46,111.86,359.7,99.11,356.92Z" transform="translate(-15.5 -21.38)" style="fill:#d23b3b"/><path d="M75.75,373.88A28,28,0,0,1,84.33,359a22,22,0,0,1,14.78-2c12.75,2.78,20.58,16.54,17.49,30.73A28.07,28.07,0,0,1,108,402.58a22,22,0,0,1-14.78,2C80.49,401.83,72.66,388.07,75.75,373.88Z" transform="translate(-15.5 -21.38)" style="fill:#d23b3b"/><path d="M88.26,407.23a10.52,10.52,0,0,0,1.68-1.3l.66.14.66.15a10,10,0,0,0,1,1.88c.38.42.19,1.27-2.25.74S87.74,407.45,88.26,407.23Z" transform="translate(-15.5 -21.38)" style="fill:#ca4827"/><path d="M96.35,359.52l.28.08c.18,0,.45.12.79.23a20.54,20.54,0,0,1,2.77,1.15c.56.25,1.14.6,1.75.95s1.23.79,1.84,1.25a18.34,18.34,0,0,1,1.81,1.53c.29.28.6.54.87.84l.81.92a19.17,19.17,0,0,1,1.46,1.93c.46.66.8,1.37,1.19,2s.62,1.37.91,2a14.59,14.59,0,0,1,.63,1.86,12.67,12.67,0,0,1,.45,1.59c.1.49.18.91.25,1.26l.21,1.1,0,.12a1.26,1.26,0,1,0,2.48-.49s0,0,0-.06l-.3-1.19c-.1-.37-.22-.83-.35-1.35a15.16,15.16,0,0,0-.58-1.72,17.38,17.38,0,0,0-.81-2c-.36-.67-.67-1.41-1.11-2.13s-.88-1.44-1.42-2.13a21.52,21.52,0,0,0-1.7-2l-.93-.95c-.31-.31-.66-.57-1-.86a21.9,21.9,0,0,0-2-1.53c-.69-.45-1.37-.85-2-1.21s-1.3-.67-1.91-.91a21.12,21.12,0,0,0-3-1.05c-.37-.1-.67-.17-.88-.21l-.31-.06a.53.53,0,0,0-.61.41.54.54,0,0,0,.38.61Z" transform="translate(-15.5 -21.38)" style="fill:#fbfaf9"/></g><g id="ballon_two"><path d="M94.48,154.66h.12a.38.38,0,0,1,.33.41c-.85,8.22.44,15.12,4.32,23.07,4.15,8.53,6.31,23.57,6.33,23.72a.38.38,0,0,1-.32.43.38.38,0,0,1-.43-.32c0-.15-2.16-15.08-6.26-23.5-3.94-8.08-5.25-15.1-4.39-23.47A.37.37,0,0,1,94.48,154.66Z" transform="translate(-15.5 -21.38)" style="fill:#d23b3b"/><path d="M98.58,119.33a20.16,20.16,0,0,1,6.53,11.08c2.23,10.22-3.41,20.13-12.59,22.13a16,16,0,0,1-12.13-2.31A16.38,16.38,0,0,0,94.52,154c9.18-2,14.82-11.91,12.59-22.13A19.89,19.89,0,0,0,98.58,119.33Z" transform="translate(-15.5 -21.38)" style="fill:#ca4827"/><path d="M88.3,118.21a15.8,15.8,0,0,1,10.64,1.45l-.36-.33A16,16,0,0,0,86.46,117c-9.19,2-14.83,11.91-12.6,22.13a20.16,20.16,0,0,0,6.53,11.08c.49.31,1,.59,1.49.85a20.13,20.13,0,0,1-6.18-10.75C73.48,130.11,79.12,120.21,88.3,118.21Z" transform="translate(-15.5 -21.38)" style="fill:#e1724c"/><path d="M105.11,130.41a20.18,20.18,0,0,0-6.17-10.75,15.8,15.8,0,0,0-10.64-1.45c-9.18,2-14.82,11.9-12.6,22.12a20.13,20.13,0,0,0,6.18,10.75,15.86,15.86,0,0,0,10.64,1.46C101.7,150.54,107.34,140.63,105.11,130.41Z" transform="translate(-15.5 -21.38)" style="fill:#e1724c"/><path d="M96.11,154.43a7.51,7.51,0,0,1-1.21-.94l-.48.11-.47.1a7.54,7.54,0,0,1-.71,1.36c-.27.3-.14.91,1.62.53S96.48,154.59,96.11,154.43Z" transform="translate(-15.5 -21.38)" style="fill:#ca4827"/><path d="M90.29,120.08l-.21,0-.57.17a16.07,16.07,0,0,0-2,.82c-.41.19-.82.44-1.26.69s-.89.57-1.33.9a16.47,16.47,0,0,0-1.3,1.1c-.21.2-.43.39-.63.61l-.58.66a15.35,15.35,0,0,0-1,1.39c-.33.47-.58,1-.86,1.46s-.44,1-.65,1.43a12.57,12.57,0,0,0-.46,1.34,9.24,9.24,0,0,0-.32,1.15l-.18.91c-.1.5-.15.79-.15.79l0,.09a.91.91,0,0,1-1.79-.36v-.05l.22-.85.25-1a9.08,9.08,0,0,1,.42-1.24,11.61,11.61,0,0,1,.58-1.43c.25-.49.48-1,.79-1.53s.64-1,1-1.54a16.84,16.84,0,0,1,1.23-1.45l.66-.68c.23-.22.48-.41.71-.62a15.94,15.94,0,0,1,1.46-1.1c.49-.33,1-.62,1.46-.88s.94-.48,1.38-.65a14.06,14.06,0,0,1,2.15-.75c.26-.07.47-.13.63-.16l.22,0a.37.37,0,0,1,.16.73Z" transform="translate(-15.5 -21.38)" style="fill:#fbfaf9"/></g><g id="ballon_one"><path d="M57.28,93.74l.15.05a.52.52,0,0,1,.23.7c-5.27,10.2-7.1,19.77-6.13,32,1,13.13-3.81,33.68-3.86,33.88a.5.5,0,0,1-.62.39.52.52,0,0,1-.39-.63c.05-.2,4.86-20.59,3.83-33.55-1-12.45.88-22.19,6.24-32.57A.53.53,0,0,1,57.28,93.74Z" transform="translate(-15.5 -21.38)" style="fill:#d23b3b"/><path d="M80.51,50.15A28,28,0,0,1,83.33,67.8C81,82.13,68.7,92.08,55.82,90a22.23,22.23,0,0,1-14.51-9.13A22.7,22.7,0,0,0,57.65,92.94C70.54,95,82.85,85.07,85.16,70.73A27.58,27.58,0,0,0,80.51,50.15Z" transform="translate(-15.5 -21.38)" style="fill:#ca4827"/><path d="M67.79,43.48a21.94,21.94,0,0,1,13,7.28c-.1-.2-.19-.41-.29-.61A22.28,22.28,0,0,0,66,41c-12.88-2.07-25.2,7.87-27.51,22.21a28,28,0,0,0,2.82,17.65c.47.64,1,1.26,1.49,1.85a28.06,28.06,0,0,1-2.53-17C42.58,51.35,54.9,41.41,67.79,43.48Z" transform="translate(-15.5 -21.38)" style="fill:#e1724c"/><path d="M83.33,67.8a28,28,0,0,0-2.53-17,21.94,21.94,0,0,0-13-7.28C54.9,41.41,42.58,51.35,40.27,65.69a28.06,28.06,0,0,0,2.53,17,22,22,0,0,0,13,7.28C68.7,92.08,81,82.13,83.33,67.8Z" transform="translate(-15.5 -21.38)" style="fill:#e1724c"/><path d="M59.5,94.27a10.15,10.15,0,0,1-1.09-1.82l-.66-.11-.67-.11a10.52,10.52,0,0,1-1.61,1.4c-.5.24-.64,1.1,1.83,1.5S59.9,94.67,59.5,94.27Z" transform="translate(-15.5 -21.38)" style="fill:#ca4827"/><path d="M69.41,46.91l-.3,0c-.18,0-.46,0-.82-.07a21,21,0,0,0-3,.06,19.14,19.14,0,0,0-2,.25c-.7.12-1.43.28-2.17.48a19.14,19.14,0,0,0-2.24.77c-.37.15-.76.28-1.12.46l-1.09.56a21.61,21.61,0,0,0-2.07,1.27c-.66.44-1.25,1-1.85,1.44s-1.06,1-1.56,1.53a15.29,15.29,0,0,0-1.28,1.5,12.77,12.77,0,0,0-1,1.32q-.39.63-.69,1.08l-.6.94-.07.11a1.25,1.25,0,0,1-1.74.38,1.27,1.27,0,0,1-.39-1.75.1.1,0,0,0,0-.05l.71-1c.23-.32.5-.7.82-1.13a12.35,12.35,0,0,1,1.17-1.39,16.28,16.28,0,0,1,1.48-1.56c.58-.5,1.14-1.07,1.8-1.57s1.36-1,2.11-1.47a21.52,21.52,0,0,1,2.32-1.25l1.21-.54c.4-.18.82-.29,1.23-.44a21,21,0,0,1,2.45-.69c.8-.17,1.59-.29,2.33-.39s1.45-.15,2.11-.15a21.77,21.77,0,0,1,3.16.12c.38,0,.68.08.89.12l.31.06a.52.52,0,0,1-.16,1Z" transform="translate(-15.5 -21.38)" style="fill:#fbfaf9"/></g><path d="M64.83,202.45,36.77,262.16a.59.59,0,0,0,.62.83l26.55-4a.57.57,0,0,1,.59.28l13.84,23a.58.58,0,0,0,1-.06l28.06-59.71Z" transform="translate(-15.5 -21.38)" style="fill:#d23b3b"/><rect x="60.54" y="212.63" width="47.1" height="8.44" transform="translate(84.7 -36.55) rotate(25.17)" style="fill:#b31616"/><text transform="translate(41.63 222.99) rotate(25.17)" style="font-size:29.63913917541504px;fill:#b31616;font-family:Bevan;letter-spacing:0.039999369346846045em">W</text><text transform="translate(42.14 220.9) rotate(25.17)" style="font-size:29.63913917541504px;fill:#fff;font-family:Bevan;letter-spacing:0.039999369346846045em">W</text><path d="M114.73,226,96.27,290a.58.58,0,0,0,.74.72l25.58-8.17a.61.61,0,0,1,.63.18l17.3,20.54a.59.59,0,0,0,1-.22L160,239Z" transform="translate(-15.5 -21.38)" style="fill:#d23b3b"/><rect x="112.44" y="232.48" width="47.1" height="9.56" transform="translate(55.55 -49.76) rotate(16.08)" style="fill:#b31616"/><text transform="translate(102.89 249.27) rotate(16.08)" style="font-size:29.639129638671875px;fill:#b31616;font-family:Bevan;letter-spacing:0.039999382217119794em">E</text><text transform="translate(103.23 247.12) rotate(16.08)" style="font-size:29.639129638671875px;fill:#fff;font-family:Bevan;letter-spacing:0.039999382217119794em">E</text><path d="M170.61,240l-9.55,66a.58.58,0,0,0,.83.61L186.11,295a.58.58,0,0,1,.65.09l19.94,18a.59.59,0,0,0,1-.35l9.54-66Z" transform="translate(-15.5 -21.38)" style="fill:#d23b3b"/><rect x="169.57" y="244.67" width="47.1" height="8.36" transform="translate(22.14 -46.48) rotate(8.24)" style="fill:#b31616"/><text transform="matrix(0.99, 0.14, -0.14, 0.99, 165.08, 262.47)" style="font-size:29.639129638671875px;fill:#b31616;font-family:Bevan;letter-spacing:0.039999382217119794em">L</text><text transform="matrix(0.99, 0.14, -0.14, 0.99, 165.25, 260.29)" style="font-size:29.639129638671875px;fill:#fff;font-family:Bevan;letter-spacing:0.039999382217119794em">L</text><path d="M227.63,247.61v66.26a.59.59,0,0,0,.91.49l22.31-14.94a.59.59,0,0,1,.65,0l22.31,14.94a.59.59,0,0,0,.92-.49V247.61Z" transform="translate(-15.5 -21.38)" style="fill:#d23b3b"/><rect x="212.13" y="226.23" width="47.1" height="9.35" style="fill:#b31616"/><text transform="translate(226.49 267.81)" style="font-size:29.639129638671875px;fill:#b31616;font-family:Bevan;letter-spacing:0.039999382217119794em">C</text><text transform="translate(226.49 265.61)" style="font-size:29.639129638671875px;fill:#fff;font-family:Bevan;letter-spacing:0.039999382217119794em">C</text><path d="M282.86,246.34l9.31,66.49a.58.58,0,0,0,1,.35l20-17.88a.58.58,0,0,1,.65-.09L338,306.9a.58.58,0,0,0,.83-.6l-9.31-66.49Z" transform="translate(-15.5 -21.38)" style="fill:#d23b3b"/><rect x="283.45" y="244.63" width="47.1" height="8.61" transform="translate(-47.06 23.61) rotate(-7.97)" style="fill:#b31616"/><text transform="translate(285.68 265.24) rotate(-7.97)" style="font-size:29.639129638671875px;fill:#b31616;font-family:Bevan;letter-spacing:0.039999382217119794em">O</text><text transform="translate(285.52 263.05) rotate(-7.97)" style="font-size:29.639129638671875px;fill:#fff;font-family:Bevan;letter-spacing:0.039999382217119794em">O</text><path d="M338.68,238.34l18.1,66.74a.59.59,0,0,0,1,.23l17.63-20.26a.6.6,0,0,1,.62-.17l25.45,8.58a.58.58,0,0,0,.75-.71L384.14,226Z" transform="translate(-15.5 -21.38)" style="fill:#d23b3b"/><rect x="339.46" y="231.96" width="47.1" height="12.24" transform="translate(-65.17 81.98) rotate(-15.18)" style="fill:#b31616"/><text transform="translate(345.2 257.01) rotate(-15.18)" style="font-size:29.639129638671875px;fill:#b31616;font-family:Bevan;letter-spacing:0.039999382217119794em">M</text><text transform="translate(344.89 254.86) rotate(-15.18)" style="font-size:29.639129638671875px;fill:#fff;font-family:Bevan;letter-spacing:0.039999382217119794em">M</text><path d="M390.7,224.64l27.89,60.53a.59.59,0,0,0,1,.06l14-22.91a.57.57,0,0,1,.59-.27l26.52,4.23a.59.59,0,0,0,.62-.83l-27.89-60.52Z" transform="translate(-15.5 -21.38)" style="fill:#d23b3b"/><rect x="390.63" y="214.59" width="47.1" height="9.46" transform="translate(-69.27 172.07) rotate(-24.74)" style="fill:#b31616"/><text transform="translate(406.6 234.94) rotate(-24.74)" style="font-size:29.639129638671875px;fill:#b31616;font-family:Bevan;letter-spacing:0.039999382217119794em">E</text><text transform="translate(406.1 232.85) rotate(-24.74)" style="font-size:29.639129638671875px;fill:#fff;font-family:Bevan;letter-spacing:0.039999382217119794em">E</text><path d="M251.18,245.76c-86,0-163.94-23-204.49-60.21l-2.27,2.36c39.86,38.46,119.08,62.35,206.76,62.35s166.9-23.89,206.76-62.35l-2.28-2.36C415.11,222.75,337.21,245.76,251.18,245.76Z" transform="translate(-15.5 -21.38)" style="fill:#252a30"/><path d="M42.66,186.23a4.48,4.48,0,0,1,3.89-4.45,4.07,4.07,0,0,0-.61-.05,4.5,4.5,0,0,0,0,9,4.07,4.07,0,0,0,.61,0A4.49,4.49,0,0,1,42.66,186.23Z" transform="translate(-15.5 -21.38)" style="fill:#b3381a"/><path d="M50.44,186.23a4.49,4.49,0,0,0-3.89-4.45,4.49,4.49,0,0,0,0,8.9A4.5,4.5,0,0,0,50.44,186.23Z" transform="translate(-15.5 -21.38)" style="fill:#cf633f"/><path d="M452.48,187.78a5,5,0,0,1,4.34-5,5,5,0,1,0,0,9.95A5,5,0,0,1,452.48,187.78Z" transform="translate(-15.5 -21.38)" style="fill:#b3381a"/><path d="M461.17,187.78a4.38,4.38,0,1,0-4.35,5A5,5,0,0,0,461.17,187.78Z" transform="translate(-15.5 -21.38)" style="fill:#cf633f"/></g><g id="OBJECTS"><path d="M64.83,202.45,36.77,262.16a.59.59,0,0,0,.62.83l26.55-4a.57.57,0,0,1,.59.28l13.84,23a.58.58,0,0,0,1-.06l28.06-59.71Z" transform="translate(-15.5 -21.38)" style="fill:#d23b3b"/><rect x="60.54" y="212.63" width="47.1" height="8.44" transform="translate(84.7 -36.55) rotate(25.17)" style="fill:#b31616"/><text transform="matrix(0.91, 0.41, -0.41, 0.91, 37.71, 222.65)" style="font-size:29.639129638671875px;fill:#fff;font-family:SnapITC-Regular, Snap ITC;letter-spacing:0.039999382217119794em">W</text><path d="M114.73,226,96.27,290a.58.58,0,0,0,.74.72l25.58-8.17a.61.61,0,0,1,.63.18l17.3,20.54a.59.59,0,0,0,1-.22L160,239Z" transform="translate(-15.5 -21.38)" style="fill:#d23b3b"/><rect x="112.44" y="232.48" width="47.1" height="9.56" transform="translate(55.55 -49.76) rotate(16.08)" style="fill:#b31616"/><text transform="translate(99 248.15) rotate(15.9)" style="font-size:29.639129638671875px;fill:#fff;font-family:SnapITC-Regular, Snap ITC;letter-spacing:0.039999382217119794em">E</text><path d="M170.61,240l-9.55,66a.58.58,0,0,0,.83.61L186.11,295a.58.58,0,0,1,.65.09l19.94,18a.59.59,0,0,0,1-.35l9.54-66Z" transform="translate(-15.5 -21.38)" style="fill:#d23b3b"/><rect x="169.57" y="244.67" width="47.1" height="8.36" transform="translate(22.14 -46.48) rotate(8.24)" style="fill:#b31616"/><text transform="translate(161.37 262.62) rotate(9.07)" style="font-size:29.639129638671875px;fill:#fff;font-family:SnapITC-Regular, Snap ITC;letter-spacing:0.039999382217119794em">L</text><path d="M227.63,247.61v66.26a.59.59,0,0,0,.91.49l22.31-14.94a.59.59,0,0,1,.65,0l22.31,14.94a.59.59,0,0,0,.92-.49V247.61Z" transform="translate(-15.5 -21.38)" style="fill:#d23b3b"/><rect x="212.13" y="226.23" width="47.1" height="9.35" style="fill:#b31616"/><text transform="matrix(1, 0.03, -0.03, 1, 225, 268.55)" style="font-size:29.639129638671875px;fill:#fff;font-family:SnapITC-Regular, Snap ITC;letter-spacing:0.039999382217119794em">C</text><path d="M282.86,246.34l9.31,66.49a.58.58,0,0,0,1,.35l20-17.88a.58.58,0,0,1,.65-.09L338,306.9a.58.58,0,0,0,.83-.6l-9.31-66.49Z" transform="translate(-15.5 -21.38)" style="fill:#d23b3b"/><rect x="283.45" y="244.63" width="47.1" height="8.61" transform="translate(-47.06 23.61) rotate(-7.97)" style="fill:#b31616"/><text transform="matrix(1, 0.03, -0.03, 1, 283.45, 262.66)" style="font-size:29.639129638671875px;fill:#fff;font-family:SnapITC-Regular, Snap ITC;letter-spacing:0.039999382217119794em">O</text><path d="M338.68,238.34l18.1,66.74a.59.59,0,0,0,1,.23l17.63-20.26a.6.6,0,0,1,.62-.17l25.45,8.58a.58.58,0,0,0,.75-.71L384.14,226Z" transform="translate(-15.5 -21.38)" style="fill:#d23b3b"/><rect x="339.46" y="231.96" width="47.1" height="12.24" transform="translate(-65.17 81.98) rotate(-15.18)" style="fill:#b31616"/><text transform="matrix(0.96, -0.28, 0.28, 0.96, 342, 256.52)" style="font-size:29.639129638671875px;fill:#fff;font-family:SnapITC-Regular, Snap ITC;letter-spacing:0.039999382217119794em">M</text><path d="M390.7,224.64l27.89,60.53a.59.59,0,0,0,1,.06l14-22.91a.57.57,0,0,1,.59-.27l26.52,4.23a.59.59,0,0,0,.62-.83l-27.89-60.52Z" transform="translate(-15.5 -21.38)" style="fill:#d23b3b"/><rect x="390.63" y="214.59" width="47.1" height="9.46" transform="translate(-69.27 172.07) rotate(-24.74)" style="fill:#b31616"/><text transform="translate(403.53 236.76) rotate(-24.87)" style="font-size:29.639129638671875px;fill:#fff;font-family:SnapITC-Regular, Snap ITC;letter-spacing:0.039999382217119794em">E</text><path d="M251.18,245.76c-86,0-163.94-23-204.49-60.21l-2.27,2.36c39.86,38.46,119.08,62.35,206.76,62.35s166.9-23.89,206.76-62.35l-2.28-2.36C415.11,222.75,337.21,245.76,251.18,245.76Z" transform="translate(-15.5 -21.38)" style="fill:#252a30"/><path d="M42.66,186.23a4.48,4.48,0,0,1,3.89-4.45,4.07,4.07,0,0,0-.61-.05,4.5,4.5,0,0,0,0,9,4.07,4.07,0,0,0,.61,0A4.49,4.49,0,0,1,42.66,186.23Z" transform="translate(-15.5 -21.38)" style="fill:#b3381a"/><path d="M50.44,186.23a4.49,4.49,0,0,0-3.89-4.45,4.49,4.49,0,0,0,0,8.9A4.5,4.5,0,0,0,50.44,186.23Z" transform="translate(-15.5 -21.38)" style="fill:#cf633f"/><path d="M452.48,187.78a5,5,0,0,1,4.34-5,5,5,0,1,0,0,9.95A5,5,0,0,1,452.48,187.78Z" transform="translate(-15.5 -21.38)" style="fill:#b3381a"/><path d="M461.17,187.78a4.38,4.38,0,1,0-4.35,5A5,5,0,0,0,461.17,187.78Z" transform="translate(-15.5 -21.38)" style="fill:#cf633f"/></g></svg>